<svg preserveAspectRatio="none" width="100%" height="100%" overflow="visible" style="display: block;" viewBox="0 0 40 40" fill="none" xmlns="http://www.w3.org/2000/svg">
<g id="apple 1">
<path id="Vector" d="M30.54 26.24C30.1581 27.1264 29.6856 27.9708 29.13 28.76C28.6136 29.5701 28.01 30.3213 27.33 31C26.7029 31.6088 25.8733 31.9648 25 32C24.2577 31.966 23.5285 31.793 22.85 31.49C22.119 31.1785 21.3345 31.0121 20.54 31C19.7214 31.0167 18.9136 31.1898 18.16 31.51C17.5109 31.8011 16.8183 31.9836 16.11 32.05C15.6633 32.0425 15.2227 31.9458 14.8139 31.7654C14.4052 31.5851 14.0367 31.3249 13.73 31C13.0217 30.3121 12.3882 29.5512 11.84 28.73C10.984 27.5001 10.3103 26.1528 9.84 24.73C9.29985 23.2108 9.01598 21.6123 9 20C8.95663 18.4171 9.35112 16.853 10.14 15.48C10.6976 14.4589 11.5152 13.6033 12.51 13C13.4844 12.4183 14.5952 12.1043 15.73 12.09C16.5865 12.1432 17.4281 12.3393 18.22 12.67C18.8572 12.9534 19.5301 13.1485 20.22 13.25C20.97 13.0938 21.7034 12.8661 22.41 12.57C23.361 12.1823 24.3837 12.0016 25.41 12.04C26.3798 12.0673 27.3304 12.3168 28.1885 12.7693C29.0467 13.2218 29.7896 13.8652 30.36 14.65C29.455 15.1277 28.7018 15.8492 28.1857 16.7329C27.6696 17.6165 27.4113 18.6271 27.44 19.65C27.4298 20.4321 27.5858 21.2074 27.8979 21.9245C28.2099 22.6417 28.6708 23.2844 29.25 23.81C29.7606 24.3043 30.3526 24.7069 31 25C30.85 25.42 30.7 25.82 30.54 26.21V26.24ZM25.5 6.4C25.482 7.75285 24.9739 9.05326 24.07 10.06C23.6127 10.6899 23.0105 11.2005 22.3143 11.5486C21.6181 11.8967 20.8483 12.0721 20.07 12.06C20.0594 11.8968 20.0594 11.7332 20.07 11.57C20.1127 10.1983 20.6489 8.88812 21.58 7.88C22.098 7.29811 22.7269 6.82553 23.43 6.49C24.0874 6.15407 24.8042 5.95023 25.54 5.89C25.5497 6.0632 25.5497 6.2368 25.54 6.41L25.5 6.4Z" fill="var(--fill-0, black)"/>
</g>
</svg>
