<svg preserveAspectRatio="none" width="100%" height="100%" overflow="visible" style="display: block;" viewBox="0 0 51.0005 50.0254" fill="none" xmlns="http://www.w3.org/2000/svg">
<g id="Allow click">
<ellipse id="Ellipse 1" cx="25.5002" cy="25.0127" rx="25.5002" ry="25.0127" fill="var(--fill-0, #093F0B)"/>
<path id="Arrow 1" d="M43.3894 26.818C44.3879 25.8629 44.4242 24.2804 43.4706 23.2834L27.9298 7.03579C26.9761 6.03876 25.3936 6.00474 24.3951 6.95982C23.3965 7.91489 23.3602 9.49738 24.3138 10.4944L38.1279 24.9367L23.6642 38.7712C22.6657 39.7263 22.6293 41.3088 23.583 42.3058C24.5367 43.3029 26.1192 43.3369 27.1177 42.3818L43.3894 26.818ZM9.33817 24.3179L9.28075 26.8172L41.6052 27.512L41.6626 25.0127L41.72 22.5134L9.39559 21.8186L9.33817 24.3179Z" fill="var(--stroke-0, white)"/>
</g>
</svg>
